<svg width="50" height="50" viewBox="0 0 50 50" fill="none" xmlns="http://www.w3.org/2000/svg">
<mask id="mask0" mask-type="alpha" maskUnits="userSpaceOnUse" x="0" y="0" width="28" height="50">
<rect width="28" height="50" fill="#C4C4C4"/>
</mask>
<g mask="url(#mask0)">
<path d="M24.1875 3C23.2773 3 22.332 3.4375 21.5625 4.21875L9.9375 15.8125C9.29688 16.3789 9 17.4766 9 18.25V31.75C9 32.5156 9.31641 33.6055 9.90625 34.125L21.5 45.6875C22.5547 46.7578 23.5273 47 24.1562 47C25.8242 47 27 45.4766 27 43.3125V6.3125C27 4.03516 25.5391 3 24.1875 3ZM38.2812 6.8125C37.8438 6.88672 37.5078 7.24219 37.457 7.68359C37.4102 8.125 37.6523 8.54688 38.0625 8.71875C44.0117 11.7188 48.0625 17.8711 48.0625 25C48.0625 32.1289 44.0117 38.2812 38.0625 41.2812C37.6953 41.4062 37.4375 41.7344 37.3945 42.1172C37.3516 42.5039 37.5352 42.8789 37.8672 43.082C38.1953 43.2813 38.6133 43.2734 38.9375 43.0625C45.5391 39.7305 50.0625 32.8945 50.0625 25C50.0625 17.1055 45.5391 10.2695 38.9375 6.9375C38.7656 6.83984 38.5703 6.79688 38.375 6.8125C38.3438 6.8125 38.3125 6.8125 38.2812 6.8125ZM34.7188 12.125C34.2734 12.1797 33.918 12.5273 33.8555 12.9727C33.7891 13.4141 34.0273 13.8477 34.4375 14.0312C38.3398 16.1367 41 20.2461 41 25C41 29.7383 38.3516 33.8594 34.4688 35.9688C33.9844 36.2344 33.8086 36.8438 34.0781 37.3281C34.3438 37.8125 34.9531 37.9883 35.4375 37.7188C39.9453 35.2695 43 30.4844 43 25C43 19.5 39.9375 14.6953 35.4062 12.25C35.2266 12.1484 35.0195 12.1055 34.8125 12.125C34.7812 12.125 34.75 12.125 34.7188 12.125ZM3 15.9688C1.32422 15.9688 -0.03125 17.3242 -0.03125 19V31C-0.03125 32.6758 1.32422 34.0312 3 34.0312H7.46875C7.14062 33.2461 7 32.4102 7 31.75V18.25C7 17.5938 7.16406 16.7617 7.5 15.9688H3ZM30.5312 18.4062C30.0469 18.4648 29.6797 18.8633 29.6562 19.3516C29.6328 19.8359 29.9609 20.2695 30.4375 20.375C32.4844 20.9102 34 22.7773 34 25C34 27.2227 32.4844 29.0898 30.4375 29.625C29.9023 29.7617 29.582 30.3086 29.7188 30.8438C29.8555 31.3789 30.4023 31.6992 30.9375 31.5625C33.8516 30.8008 36 28.1367 36 25C36 21.8633 33.8477 19.1992 30.9375 18.4375C30.8047 18.3984 30.668 18.3906 30.5312 18.4062Z" fill="black"/>
</g>
</svg>